<?xml version="1.0" encoding="UTF-8"?>
<!--Generator: Apple Native CoreSVG 326-->
<!DOCTYPE svg
PUBLIC "-//W3C//DTD SVG 1.1//EN"
       "http://www.w3.org/Graphics/SVG/1.1/DTD/svg11.dtd">
<svg version="1.1" xmlns="http://www.w3.org/2000/svg" xmlns:xlink="http://www.w3.org/1999/xlink" viewBox="0 0 17.5957 21.9946">
 <g>
  <rect height="21.9946" opacity="0" width="17.5957" x="0" y="0"/>
  <path d="M4.68604 5.27051L12.9507 5.27051C13.3198 5.27051 13.5864 4.99365 13.5864 4.63477C13.5864 4.28613 13.3198 4.00928 12.9507 4.00928L4.68604 4.00928C4.30664 4.00928 4.04004 4.28613 4.04004 4.63477C4.04004 4.99365 4.30664 5.27051 4.68604 5.27051ZM4.68604 8.24414L9.53613 8.24414C9.89502 8.24414 10.1719 7.96729 10.1719 7.6084C10.1719 7.25977 9.89502 6.98291 9.53613 6.98291L4.68604 6.98291C4.30664 6.98291 4.04004 7.25977 4.04004 7.6084C4.04004 7.96729 4.30664 8.24414 4.68604 8.24414ZM4.83984 18.3955L12.4175 18.3955C13.3198 18.3955 13.7812 17.9341 13.7812 17.0317L13.7812 11.3306C13.7812 10.4282 13.3198 9.95654 12.4175 9.95654L4.83984 9.95654C3.96826 9.95654 3.46582 10.4282 3.46582 11.3306L3.46582 17.0317C3.46582 17.9341 3.96826 18.3955 4.83984 18.3955ZM0 18.7749C0 20.918 1.05615 21.9844 3.17871 21.9844L14.0684 21.9844C16.1909 21.9844 17.2471 20.918 17.2471 18.7749L17.2471 3.21973C17.2471 1.08691 16.1909 0 14.0684 0L3.17871 0C1.05615 0 0 1.08691 0 3.21973ZM1.65088 18.7441L1.65088 3.25049C1.65088 2.2251 2.19434 1.65088 3.26074 1.65088L13.9863 1.65088C15.0527 1.65088 15.5962 2.2251 15.5962 3.25049L15.5962 18.7441C15.5962 19.7695 15.0527 20.3335 13.9863 20.3335L3.26074 20.3335C2.19434 20.3335 1.65088 19.7695 1.65088 18.7441Z" fill="black" fill-opacity="0.85"/>
 </g>
</svg>
